# xmcd
#
# Track frame offsets:
#	150
#	20692
#	38237
#	70620
#	88510
#	108572
#	128272
#	145050
#	165035
#	183427
#	206080
#	225550
#	248630
#	271342
#	293237
#
# Disc length: 4271 seconds
#
# Revision: 1
# Processed by: cddbd v1.5.1PL0 Copyright (c) Steve Scherf et al.
# Submitted via: CDex 1.50Beta5
#
DISCID=c310ad0f
DTITLE=アンドレ ギャニオン - PIANO PRESENT
DYEAR=1900
DGENRE=
TTITLE0=プロローグ(心の旅)
TTITLE1=めぐり逢い
TTITLE2=恋する時は
TTITLE3=シネマのように
TTITLE4=夢で逢えたら
TTITLE5=マイ・ファニー・バレンタイン
TTITLE6=突然の手紙
TTITLE7=さざ波のように
TTITLE8=トゥルー・ラブ
TTITLE9=ぬくもりにふれて
TTITLE10=印象物語
TTITLE11=蒼い夜
TTITLE12=溢れる愛のなかでも
TTITLE13=美しい日々
TTITLE14=エピローグ(まどろみのなかで)
EXTD=
EXTT0=
EXTT1=
EXTT2=
EXTT3=
EXTT4=
EXTT5=
EXTT6=
EXTT7=
EXTT8=
EXTT9=
EXTT10=
EXTT11=
EXTT12=
EXTT13=
EXTT14=
PLAYORDER=
